<svg width="150" height="46" viewBox="0 0 150 46" fill="none" xmlns="http://www.w3.org/2000/svg">
<path d="M149 23C149 25.7009 147.212 28.4655 143.519 31.143C139.849 33.8044 134.473 36.2426 127.74 38.3074C114.286 42.4331 95.6398 45 75 45C54.3602 45 35.7137 42.4331 22.2602 38.3074C15.5273 36.2426 10.1515 33.8044 6.48086 31.143C2.78785 28.4655 1 25.7009 1 23C1 20.2991 2.78785 17.5345 6.48086 14.857C10.1515 12.1956 15.5273 9.75735 22.2602 7.6926C35.7137 3.56686 54.3602 1 75 1C95.6398 1 114.286 3.56686 127.74 7.6926C134.473 9.75735 139.849 12.1956 143.519 14.857C147.212 17.5345 149 20.2991 149 23Z" stroke="#B41F42" stroke-width="2"/>
</svg>
