<svg width="50" height="50" viewBox="0 0 50 50" fill="none" xmlns="http://www.w3.org/2000/svg">
<path d="M17.6626 18.9001C18.2433 18.6996 18.6996 18.2433 18.9001 17.6626L23.1096 5.47388C23.7299 3.67771 26.2701 3.67771 26.8904 5.47388L31.0999 17.6626C31.3004 18.2433 31.7567 18.6996 32.3374 18.9001L44.5261 23.1096C46.3223 23.7299 46.3223 26.2701 44.5261 26.8904L32.3374 31.0999C31.7567 31.3004 31.3004 31.7567 31.0999 32.3374L26.8904 44.5261C26.2701 46.3223 23.7299 46.3223 23.1096 44.5261L18.9001 32.3374C18.6996 31.7567 18.2433 31.3004 17.6626 31.0999L5.47388 26.8904C3.67771 26.2701 3.67771 23.7299 5.47388 23.1096L17.6626 18.9001Z" fill="#2F4F4F"/>
</svg>
